<?xml version="1.0" standalone="no"?><!DOCTYPE svg PUBLIC "-//W3C//DTD SVG 1.1//EN" "http://www.w3.org/Graphics/SVG/1.1/DTD/svg11.dtd"><svg t="1686723025855" class="icon" viewBox="0 0 1024 1024" version="1.1" xmlns="http://www.w3.org/2000/svg" p-id="3792" xmlns:xlink="http://www.w3.org/1999/xlink" width="200" height="200"><path d="M532.1216 27.52a38.1184 38.1184 0 0 0-12.6208-0.64c-2.7136 0-5.3248-0.4352-8.0384-0.4352C243.6352 26.5472 25.7536 244.4288 25.7536 512.256c0 151.5008 68.864 291.6608 188.8 384.512 85.6576 66.2528 188.288 101.1968 296.7808 101.1968 267.8528 0 485.7344-217.856 485.7344-485.7088 0.1024-260.864-206.7968-473.7536-464.9472-484.736zM850.3552 744.192c-80.8704-19.9168-145.0752-65.8432-179.584-124.928 85.76-16.9728 171.4176-46.8992 251.0848-95.232a409.344 409.344 0 0 1-71.5008 220.16z m-248.6784 168.704c-54.9632-86.1952-86.4-180.8896-101.888-275.456a1045.4272 1045.4272 0 0 0 93.0816-6.0928c36.224 79.104 109.3632 142.8992 204.5952 175.2064a407.552 407.552 0 0 1-195.7888 106.3424z m40.9088-394.752c0-106.752 87.6288-199.04 214.2976-227.6608a407.7824 407.7824 0 0 1 58.6496 149.0944c-0.64 0.4352-1.28 0.6656-1.9456 1.1008-83.456 57.5744-175.872 90.9824-268.3904 108.16a206.08 206.08 0 0 1-2.6112-30.6944z m163.9168-291.328c-142.592 44.9536-238.6688 159.3344-238.6688 291.328 0 13.952 1.408 27.5456 3.4816 41.0368a1012.7872 1012.7872 0 0 1-80.5376 4.5824c-15.4624-188.8256 25.1392-366.6688 58.2144-460.5696a409.7536 409.7536 0 0 1 257.5104 123.6224zM470.3232 103.2704c-32.768 103.7056-67.2512 275.5584-53.76 458.8288a1168.0512 1168.0512 0 0 1-93.3888-8.8064c0.8704-11.648 1.408-23.296 1.408-35.2768 0-122.5472-46.6688-230.912-117.2992-281.344 66.5856-73.3184 158.976-122.9568 263.04-133.4016zM167.0144 736.5632A406.6304 406.6304 0 0 1 106.8288 581.12c36.0192 11.52 80.5376 23.296 130.9184 33.0752-14.1568 54.0928-39.5008 98.7136-70.7328 122.3424z m-65.9712-236.3904a407.0912 407.0912 0 0 1 61.2864-203.7248c51.0464 34.4832 87.5008 124.288 87.5008 221.696 0 7.7056-0.3328 15.232-0.768 22.8352-60.416-12.1856-111.3344-27.3152-148.0192-40.8064z m159.232 337.3824c-16.9728-13.056-32.2048-27.7504-46.6944-42.88 45.5936-35.4816 80.5376-95.7696 98.176-168.1408 35.9168 4.8896 73.7792 8.2688 112.9728 9.984 14.336 97.2032 43.9552 195.2512 95.744 286.2336-3.0208 0.128-5.9648 0.4352-9.0112 0.4352-91.8528 0-178.688-29.5936-251.1872-85.632z" fill="#7E7E7E" p-id="3793"></path></svg>